<svg id="Capa_1" data-name="Capa 1" xmlns="http://www.w3.org/2000/svg" xmlns:xlink="http://www.w3.org/1999/xlink" viewBox="0 0 2365.5 1182.5"><defs><style>.cls-1,.cls-24{fill:none;}.cls-2{clip-path:url(#clip-path);}.cls-3{clip-path:url(#clip-path-2);}.cls-4{fill:url(#Degradado_sin_nombre);}.cls-5{clip-path:url(#clip-path-3);}.cls-6{fill:url(#Degradado_sin_nombre_2);}.cls-7{clip-path:url(#clip-path-4);}.cls-8{fill:url(#Degradado_sin_nombre_3);}.cls-9{clip-path:url(#clip-path-5);}.cls-10{fill:url(#Degradado_sin_nombre_4);}.cls-11{clip-path:url(#clip-path-6);}.cls-12{fill:url(#Degradado_sin_nombre_5);}.cls-13{clip-path:url(#clip-path-7);}.cls-14{fill:url(#Degradado_sin_nombre_6);}.cls-15{clip-path:url(#clip-path-8);}.cls-16{fill:url(#Degradado_sin_nombre_7);}.cls-17{clip-path:url(#clip-path-9);}.cls-18{fill:url(#Degradado_sin_nombre_8);}.cls-19{fill:#68c9e0;}.cls-20{fill:#0f3c72;}.cls-21{fill:#7bd3ff;}.cls-22{fill:#1966b2;}.cls-23{fill:#689baa;}.cls-24{stroke:#426362;stroke-miterlimit:10;}.cls-25{fill:#6fa5b2;}.cls-26{fill:#8bd1d1;}.cls-27{fill:#6290a3;}.cls-28{fill:#85c9cc;}.cls-29{fill:#77b2bc;}.cls-30{fill:#7fbfc6;}.cls-31{fill:#324a51;}.cls-32{fill:#db61db;}.cls-33{fill:#974599;}.cls-34{fill:#997c47;}.cls-35{fill:#61d889;}.cls-36{fill:#76ffa0;}.cls-37{fill:#d36363;}.cls-38{fill:#6a61d8;}.cls-39{fill:#d68fd8;}.cls-40{fill:#a54ca8;}.cls-41{fill:#4e4ca5;}.cls-42{fill:#d8c761;}.cls-43{fill:#8c7f41;}.cls-44{opacity:0.56;}.cls-45{clip-path:url(#clip-path-11);}.cls-46{fill:#e0e0e0;}.cls-47{fill:#3d2e0f;}.cls-48{fill:#fff;}.cls-49{fill:#a5a5a5;}.cls-50{fill:#bbecff;}.cls-51{opacity:0.96;}.cls-52{clip-path:url(#clip-path-12);}.cls-53{opacity:0.75;}.cls-54{clip-path:url(#clip-path-13);}.cls-55{fill:#828282;}.cls-56{clip-path:url(#clip-path-14);}.cls-57{clip-path:url(#clip-path-15);}.cls-58{clip-path:url(#clip-path-16);}.cls-59{clip-path:url(#clip-path-17);}.cls-60{fill:#afafaf;}.cls-61{clip-path:url(#clip-path-18);}.cls-62{clip-path:url(#clip-path-19);}.cls-63{clip-path:url(#clip-path-20);}.cls-64{fill:#d2f2ff;}.cls-65{clip-path:url(#clip-path-21);}.cls-66{clip-path:url(#clip-path-22);}.cls-67{fill:#3d3d3d;}.cls-68{fill:#a37e4d;}.cls-69{fill:#8c8c8c;}.cls-70{fill:#a04d4d;}.cls-71{fill:#d6a763;}.cls-72{fill:#d3d3d3;}.cls-73{fill:#428e74;}.cls-74{fill:#61d8b4;}</style><clipPath id="clip-path" transform="translate(-0.5 -0.5)"><rect class="cls-1" width="2366" height="1183"/></clipPath><clipPath id="clip-path-2" transform="translate(-0.5 -0.5)"><path class="cls-1" d="M724.5,71a18.5,18.5,0,0,0,0,37h584a18.5,18.5,0,0,0,0-37Z"/></clipPath><linearGradient id="Degradado_sin_nombre" y1="1183" x2="1" y2="1183" gradientTransform="matrix(621, 0, 0, -621, 705.5, 734732)" gradientUnits="userSpaceOnUse"><stop offset="0" stop-color="#f7931e"/><stop offset="1" stop-color="red"/></linearGradient><clipPath id="clip-path-3" transform="translate(-0.5 -0.5)"><path class="cls-1" d="M527.5,108a18.5,18.5,0,0,0,0,37h905a18.5,18.5,0,0,0,0-37Z"/></clipPath><linearGradient id="Degradado_sin_nombre_2" y1="1183" y2="1183" gradientTransform="matrix(942, 0, 0, -942, 508.5, 1114512)" xlink:href="#Degradado_sin_nombre"/><clipPath id="clip-path-4" transform="translate(-0.5 -0.5)"><path class="cls-1" d="M656.5,145a49.5,49.5,0,0,0,0,99h827a49.5,49.5,0,0,0,0-99Z"/></clipPath><linearGradient id="Degradado_sin_nombre_3" y1="1183" y2="1183" gradientTransform="matrix(926, 0, 0, -926, 606.5, 1095652)" xlink:href="#Degradado_sin_nombre"/><clipPath id="clip-path-5" transform="translate(-0.5 -0.5)"><path class="cls-1" d="M452.5,244a49.5,49.5,0,0,0,0,99h949a49.5,49.5,0,0,0,0-99Z"/></clipPath><linearGradient id="Degradado_sin_nombre_4" y1="1183" y2="1183" gradientTransform="matrix(1048, 0, 0, -1048, 402.5, 1240077)" xlink:href="#Degradado_sin_nombre"/><clipPath id="clip-path-6" transform="translate(-0.5 -0.5)"><path class="cls-1" d="M553.5,341a49.5,49.5,0,0,0,0,99h967a49.5,49.5,0,0,0,0-99Z"/></clipPath><linearGradient id="Degradado_sin_nombre_5" y1="1183" y2="1183" gradientTransform="matrix(1066, 0, 0, -1066, 503.5, 1261468)" xlink:href="#Degradado_sin_nombre"/><clipPath id="clip-path-7" transform="translate(-0.5 -0.5)"><path class="cls-1" d="M403.5,438a49.5,49.5,0,0,0,0,99h1286a49.5,49.5,0,0,0,0-99Z"/></clipPath><linearGradient id="Degradado_sin_nombre_6" y1="1183" y2="1183" gradientTransform="matrix(1385, 0, 0, -1385, 353.5, 1638942)" xlink:href="#Degradado_sin_nombre"/><clipPath id="clip-path-8" transform="translate(-0.5 -0.5)"><path class="cls-1" d="M333.5,537a49.5,49.5,0,0,0,0,99h1286a49.5,49.5,0,0,0,0-99Z"/></clipPath><linearGradient id="Degradado_sin_nombre_7" y1="1183" y2="1183" gradientTransform="matrix(1385, 0, 0, -1385, 283.5, 1639041)" xlink:href="#Degradado_sin_nombre"/><clipPath id="clip-path-9" transform="translate(-0.5 -0.5)"><path class="cls-1" d="M475.5,636a49.5,49.5,0,0,0,0,99h1286a49.5,49.5,0,0,0,0-99Z"/></clipPath><linearGradient id="Degradado_sin_nombre_8" y1="1183" y2="1183" gradientTransform="matrix(1385, 0, 0, -1385, 425.5, 1639140)" xlink:href="#Degradado_sin_nombre"/><clipPath id="clip-path-11" transform="translate(-0.5 -0.5)"><rect class="cls-1" x="1597.78" y="594" width="155.64" height="276"/></clipPath><clipPath id="clip-path-12" transform="translate(-0.5 -0.5)"><rect class="cls-1" x="851.42" y="112" width="558" height="631"/></clipPath><clipPath id="clip-path-13" transform="translate(-0.5 -0.5)"><rect class="cls-1" x="1021.56" y="271.15" width="88.87" height="22.85"/></clipPath><clipPath id="clip-path-14" transform="translate(-0.5 -0.5)"><rect class="cls-1" x="1022.31" y="306.4" width="88.87" height="22.85"/></clipPath><clipPath id="clip-path-15" transform="translate(-0.5 -0.5)"><rect class="cls-1" x="1020.31" y="347.03" width="89.9" height="66.97"/></clipPath><clipPath id="clip-path-16" transform="translate(-0.5 -0.5)"><rect class="cls-1" x="942.63" y="597.62" width="106.93" height="63.54"/></clipPath><clipPath id="clip-path-17" transform="translate(-0.5 -0.5)"><rect class="cls-1" x="1012.6" y="425.12" width="89.69" height="46.49"/></clipPath><clipPath id="clip-path-18" transform="translate(-0.5 -0.5)"><rect class="cls-1" x="892.02" y="666" width="123.85" height="48"/></clipPath><clipPath id="clip-path-19" transform="translate(-0.5 -0.5)"><rect class="cls-1" x="976.98" y="536.51" width="97.71" height="57.49"/></clipPath><clipPath id="clip-path-20" transform="translate(-0.5 -0.5)"><rect class="cls-1" x="996.3" y="477.25" width="98.34" height="54.75"/></clipPath><clipPath id="clip-path-21" transform="translate(-0.5 -0.5)"><rect class="cls-1" x="1001.85" y="137" width="379.4" height="43.98"/></clipPath><clipPath id="clip-path-22" transform="translate(-0.5 -0.5)"><rect class="cls-1" x="1028.42" y="195" width="63" height="63"/></clipPath></defs><title>ilust post</title><g class="cls-2"><rect width="2365.5" height="1182.5"/><g class="cls-3"><rect class="cls-4" x="705.5" y="70.5" width="621" height="37"/></g><g class="cls-5"><rect class="cls-6" x="508.5" y="107.5" width="942" height="37"/></g><g class="cls-7"><rect class="cls-8" x="606.5" y="144.5" width="926" height="99"/></g><g class="cls-9"><rect class="cls-10" x="402.5" y="243.5" width="1048" height="99"/></g><g class="cls-11"><rect class="cls-12" x="503.5" y="340.5" width="1066" height="99"/></g><g class="cls-13"><rect class="cls-14" x="353.5" y="437.5" width="1385" height="99"/></g><g class="cls-15"><rect class="cls-16" x="283.5" y="536.5" width="1385" height="99"/></g><g class="cls-17"><rect class="cls-18" x="425.5" y="635.5" width="1385" height="99"/></g><g class="cls-2"><path class="cls-19" d="M1947.77,1101.5H810.48a15.9,15.9,0,0,1-11.2-4.61L407,707c-10-10-2.94-27,11.19-27l1139.1-1a15.87,15.87,0,0,1,11.25,4.65L1959,1074.55c10,10,2.87,27-11.24,27" transform="translate(-0.5 -0.5)"/><path class="cls-20" d="M1288.55,762.63H824a21.22,21.22,0,0,1-21.23-21.23V446.85A21.22,21.22,0,0,1,824,425.63h464.55a21.22,21.22,0,0,1,21.22,21.22V741.4a21.22,21.22,0,0,1-21.22,21.23" transform="translate(-0.5 -0.5)"/><path class="cls-21" d="M1258.45,742.62H854.09a21.22,21.22,0,0,1-21.22-21.22V466.86a21.23,21.23,0,0,1,21.22-21.23h404.36a21.23,21.23,0,0,1,21.22,21.23V721.4a21.22,21.22,0,0,1-21.22,21.22" transform="translate(-0.5 -0.5)"/><polygon class="cls-20" points="814.92 790.5 973.92 951.5 973.92 932.5 814.92 771.5 814.92 790.5"/><path class="cls-20" d="M1465,952H974.42V927h500v15.57A9.43,9.43,0,0,1,1465,952" transform="translate(-0.5 -0.5)"/><path class="cls-22" d="M1472.45,931.49a5,5,0,0,1-2.27.51l-491.42,1.69a9.41,9.41,0,0,1-6.61-2.72L818.21,778.3a9.35,9.35,0,0,1,6.61-16l483.8.69a5.55,5.55,0,0,1,4,1,5.42,5.42,0,0,1,1.73,2.18,5.34,5.34,0,0,0,1.12,1.66l155.19,154.81a5.87,5.87,0,0,0,.77.63c2.69,1.89,3.58,4.87,2.59,6.72a3.74,3.74,0,0,1-1.58,1.49" transform="translate(-0.5 -0.5)"/><path class="cls-23" d="M1309.56,794H863l13.57,14h445.15l-12.15-14" transform="translate(-0.5 -0.5)"/><path class="cls-24" d="M1309.56,794H863l13.57,14h445.15Z" transform="translate(-0.5 -0.5)"/><path class="cls-25" d="M1321.71,808H876.56l13.58,14h443.71q-6.07-7-12.14-14" transform="translate(-0.5 -0.5)"/><path class="cls-24" d="M1321.71,808H876.56l13.58,14h443.71Q1327.78,815,1321.71,808Z" transform="translate(-0.5 -0.5)"/><path class="cls-26" d="M943.36,876.91a3.5,3.5,0,0,0,2.5,1.09h427.89c3.25,0,4.9-4.34,2.65-6.94l-6.12-7.06H930.85l12.51,12.91" transform="translate(-0.5 -0.5)"/><path class="cls-24" d="M943.36,876.91a3.5,3.5,0,0,0,2.5,1.09h427.89c3.25,0,4.9-4.34,2.65-6.94l-6.12-7.06H930.85Z" transform="translate(-0.5 -0.5)"/><path class="cls-27" d="M1298.51,781.25a3.52,3.52,0,0,0-2.65-1.25h-437c-3.35,0-5,4.57-2.5,7.1L863,794h446.57l-11-12.75" transform="translate(-0.5 -0.5)"/><path class="cls-24" d="M1298.51,781.25a3.52,3.52,0,0,0-2.65-1.25h-437c-3.35,0-5,4.57-2.5,7.1L863,794h446.57Z" transform="translate(-0.5 -0.5)"/><path class="cls-28" d="M917.28,850l13.57,14h439.43l-12.15-14Z" transform="translate(-0.5 -0.5)"/><path class="cls-24" d="M917.28,850l13.57,14h439.43l-12.15-14Z" transform="translate(-0.5 -0.5)"/><path class="cls-29" d="M1333.85,822H890.14l13.57,14H1346l-12.14-14" transform="translate(-0.5 -0.5)"/><path class="cls-24" d="M1333.85,822H890.14l13.57,14H1346Z" transform="translate(-0.5 -0.5)"/><path class="cls-30" d="M1346,836H903.71l13.57,14h440.85q-6.06-7-12.14-14" transform="translate(-0.5 -0.5)"/><path class="cls-24" d="M1346,836H903.71l13.57,14h440.85Q1352.07,843,1346,836Z" transform="translate(-0.5 -0.5)"/><path class="cls-31" d="M1292.42,915h-170l-29-30h168.67l30.33,30" transform="translate(-0.5 -0.5)"/><path class="cls-32" d="M676.42,772V890h.05c1,11.64,38.44,21,84.45,21s83.4-9.36,84.45-21h0V772Z" transform="translate(-0.5 -0.5)"/><path class="cls-33" d="M845.42,772.5c0,11.87-37.83,21.5-84.5,21.5s-84.5-9.63-84.5-21.5,37.83-21.5,84.5-21.5,84.5,9.63,84.5,21.5" transform="translate(-0.5 -0.5)"/><path class="cls-34" d="M827.6,773.06c0,9.35-29.81,16.94-66.59,16.94s-66.59-7.59-66.59-16.94,29.81-16.95,66.59-16.95,66.59,7.59,66.59,16.95" transform="translate(-0.5 -0.5)"/><path class="cls-35" d="M828.42,636.64V575.17c0-8.64-6.64-16.11-15.28-16.49a16,16,0,0,0-16.72,16v48.11a0,0,0,0,1,0,.05h-11.9a0,0,0,0,1-.05-.05V538a24,24,0,0,0-48,0V643.78a0,0,0,0,1,0,.05h-15.9a0,0,0,0,1-.05-.05V596.17c0-8.64-6.64-16.11-15.28-16.49a16,16,0,0,0-16.72,16v62h0a15.76,15.76,0,0,0-.17,2.18A16.3,16.3,0,0,0,704.42,676a15.64,15.64,0,0,0,2.18-.17h29.77a.06.06,0,0,1,0,.06V759a24,24,0,0,0,48,0V662h0a14.13,14.13,0,0,0,0-4.37h0v-2.75a.06.06,0,0,1,.05-.06h25.77a15.64,15.64,0,0,0,2.18.17,16.3,16.3,0,0,0,16.17-16.17,15.76,15.76,0,0,0-.17-2.18h0" transform="translate(-0.5 -0.5)"/><path class="cls-36" d="M759.44,542c11.34,21.82,10.9,67.21,10,158-.48,48.82-3.25,56.72-6,62-1.43,2.75-5.54,9.92-3,13,2.3,2.78,9.7,1.81,14-2,5.2-4.6,5-12.56,5-15-1.27-144-1.91-216.08-2-219-.05-1.74-.15-7.37-4-11-4.77-4.51-14.11-4.82-17-1-3.06,4,1.55,12.2,3,15" transform="translate(-0.5 -0.5)"/><path class="cls-36" d="M815.81,564.52c4.4,1.39,10.48,9,8.72,47.08a95.26,95.26,0,0,0-15-28.08c-3.62-4.61-7.52-8.6-6.37-12.63,1.25-4.4,8.24-7.76,12.62-6.37" transform="translate(-0.5 -0.5)"/><path class="cls-36" d="M708.65,584.81c3.4,1.07,7.73,8.05,3.76,45.45-2.78-12.75-6.8-21.12-10-26.45-2.56-4.27-5.4-7.9-4.22-11.92,1.3-4.38,7.09-8.14,10.47-7.08" transform="translate(-0.5 -0.5)"/><path class="cls-37" d="M1692.75,881.5l64.67-64.67a2,2,0,1,0-2.83-2.83l-64.67,64.67a2,2,0,1,0,2.83,2.83" transform="translate(-0.5 -0.5)"/><path class="cls-38" d="M1634.22,832.26l-55.91,14.79-34-20.58,55.18-15,34.7,20.74" transform="translate(-0.5 -0.5)"/><path class="cls-32" d="M1578.31,847.05l-54.61,14.44-34.61-20.4,55.17-15,34,20.91" transform="translate(-0.5 -0.5)"/><path class="cls-39" d="M1523.7,861.49q-3.08,8.12-6.14,16.24l-35.56-24,7-13,34.7,20.73" transform="translate(-0.5 -0.5)"/><path class="cls-40" d="M1523.7,861.49q-3.08,8.12-6.14,16.24l50.71-13.42,10-17.26Z" transform="translate(-0.5 -0.5)"/><path class="cls-41" d="M1634.22,832.26l-55.91,14.79-10,17.26,59.16-15.65q3.39-8.2,6.79-16.4" transform="translate(-0.5 -0.5)"/><path class="cls-42" d="M1725.42,955.17c0,11.73-37.38,21.24-83.5,21.24s-83.5-9.51-83.5-21.24,37.38-21.25,83.5-21.25,83.5,9.52,83.5,21.25" transform="translate(-0.5 -0.5)"/><path class="cls-43" d="M1703.42,953.57c0,8.64-27.53,15.65-61.5,15.65s-61.5-7-61.5-15.65,27.54-15.65,61.5-15.65,61.5,7,61.5,15.65" transform="translate(-0.5 -0.5)"/><path class="cls-43" d="M1704.26,893.52c-12.62,0-22.85,9.94-22.85,22.2s10.23,22.21,22.85,22.21,22.86-9.94,22.86-22.21-10.23-22.2-22.86-22.2m0,38.86a16.66,16.66,0,1,1,17.15-16.66,16.91,16.91,0,0,1-17.15,16.66" transform="translate(-0.5 -0.5)"/><path class="cls-42" d="M1707.16,893.52c-12.62,0-22.86,9.94-22.86,22.2s10.24,22.21,22.86,22.21S1730,928,1730,915.72s-10.24-22.2-22.86-22.2m0,38.86a16.66,16.66,0,1,1,17.14-16.66,16.9,16.9,0,0,1-17.14,16.66" transform="translate(-0.5 -0.5)"/><path class="cls-42" d="M1643.41,964h0A59.37,59.37,0,0,1,1584,904.62V880h118.76v24.62A59.38,59.38,0,0,1,1643.41,964" transform="translate(-0.5 -0.5)"/><path class="cls-43" d="M1704.42,876.57c0,8.64-27.53,15.65-61.5,15.65s-61.5-7-61.5-15.65,27.54-15.65,61.5-15.65,61.5,7,61.5,15.65" transform="translate(-0.5 -0.5)"/><g class="cls-44"><g class="cls-45"><path class="cls-46" d="M1714.35,678.44a39,39,0,0,0-32.9,18,25.92,25.92,0,0,0-7-3.86,52.31,52.31,0,1,0-27.2,5.92,26.16,26.16,0,0,0-5.09,30.35l-.86,0a39.06,39.06,0,0,0-23.74,70.09,27.4,27.4,0,0,0,15.17,45.37,17.33,17.33,0,1,0,23.65-6.75,27.47,27.47,0,0,0,8.28-25.82,28.35,28.35,0,1,0,21.38-47,28.81,28.81,0,0,0-5.77.58,38.92,38.92,0,0,0-9.11-22.61,26.25,26.25,0,0,0,10.06-4.6,39.07,39.07,0,1,0,33.17-59.7" transform="translate(-0.5 -0.5)"/><path class="cls-46" d="M1675.28,830.3a6.93,6.93,0,1,0,6.94,6.93,6.94,6.94,0,0,0-6.94-6.93" transform="translate(-0.5 -0.5)"/></g></g><path class="cls-47" d="M1698.42,880.11c0,5.58-24.85,10.11-55.5,10.11s-55.5-4.53-55.5-10.11,24.85-10.11,55.5-10.11,55.5,4.53,55.5,10.11" transform="translate(-0.5 -0.5)"/><path class="cls-33" d="M1016.09,1072H853.56a3.11,3.11,0,0,1-2.21-.93l-78-79.9a3.09,3.09,0,0,1,2.21-5.25H938a3.07,3.07,0,0,1,2.21.93l78,79.9a3.09,3.09,0,0,1-2.21,5.25" transform="translate(-0.5 -0.5)"/><path class="cls-32" d="M1015.09,1054H852.72a3.07,3.07,0,0,1-2.21-.93l-78-79.82a3.09,3.09,0,0,1,2.21-5.25H937.12a3.11,3.11,0,0,1,2.21.93l78,79.82a3.09,3.09,0,0,1-2.21,5.25" transform="translate(-0.5 -0.5)"/><rect class="cls-48" x="850.92" y="1053.5" width="158" height="12"/><path class="cls-49" d="M851.42,1066l-73-75V979l73,75Z" transform="translate(-0.5 -0.5)"/><path d="M792.15,968c-.94-6.49-4.26-11.29-8.23-11.29s-7.29,4.8-8.23,11.29h2.2c.91-3.8,3-6.47,5.53-6.47S788,964.2,789,968a18,18,0,0,1,.47,4.12c0,.3,0,.59,0,.88h3c0-.43,0-.85,0-1.29a26.22,26.22,0,0,0-.27-3.71" transform="translate(-0.5 -0.5)"/><path d="M778.42,985.23A25.37,25.37,0,0,1,777,979c-.06-.5-.11-1-.15-1.55l-2.5-2.5c0,1.37,0,2.71.12,4a51.8,51.8,0,0,0,.9,7h3Z" transform="translate(-0.5 -0.5)"/><path d="M813.15,968c-.94-6.49-4.26-11.29-8.23-11.29s-7.29,4.8-8.23,11.29h2.2c.91-3.8,3-6.47,5.53-6.47S809,964.2,810,968a18,18,0,0,1,.47,4.12c0,.3,0,.59,0,.88h3c0-.43,0-.85,0-1.29a26.22,26.22,0,0,0-.27-3.71" transform="translate(-0.5 -0.5)"/><path d="M833.15,968c-.94-6.49-4.26-11.29-8.23-11.29s-7.29,4.8-8.23,11.29h2.2c.91-3.8,3-6.47,5.53-6.47S829,964.2,830,968a18,18,0,0,1,.47,4.12c0,.3,0,.59,0,.88h3c0-.43,0-.85,0-1.29a26.22,26.22,0,0,0-.27-3.71" transform="translate(-0.5 -0.5)"/><path d="M854.15,968c-.94-6.49-4.26-11.29-8.23-11.29s-7.29,4.8-8.23,11.29h2.2c.91-3.8,3-6.47,5.53-6.47S850,964.2,851,968a18,18,0,0,1,.47,4.12c0,.3,0,.59,0,.88h3c0-.43,0-.85,0-1.29a26.22,26.22,0,0,0-.27-3.71" transform="translate(-0.5 -0.5)"/><path d="M874.15,968c-.94-6.49-4.26-11.29-8.23-11.29s-7.29,4.8-8.23,11.29h2.2c.91-3.8,3-6.47,5.53-6.47S870,964.2,871,968a18,18,0,0,1,.47,4.12c0,.3,0,.59,0,.88h3c0-.43,0-.85,0-1.29a26.22,26.22,0,0,0-.27-3.71" transform="translate(-0.5 -0.5)"/><path d="M895.15,968c-.94-6.49-4.26-11.29-8.23-11.29s-7.29,4.8-8.23,11.29h2.2c.91-3.8,3-6.47,5.53-6.47S891,964.2,892,968a18,18,0,0,1,.47,4.12c0,.3,0,.59,0,.88h3c0-.43,0-.85,0-1.29a26.22,26.22,0,0,0-.27-3.71" transform="translate(-0.5 -0.5)"/><path d="M915.15,968c-.94-6.49-4.26-11.29-8.23-11.29s-7.29,4.8-8.23,11.29h2.2c.91-3.8,3-6.47,5.53-6.47S911,964.2,912,968a18,18,0,0,1,.47,4.12c0,.3,0,.59,0,.88h3c0-.43,0-.85,0-1.29a26.22,26.22,0,0,0-.27-3.71" transform="translate(-0.5 -0.5)"/><path d="M936.15,968c-.94-6.49-4.26-11.29-8.23-11.29s-7.29,4.8-8.23,11.29h2.2c.91-3.8,3-6.47,5.53-6.47S932,964.2,933,968a18,18,0,0,1,.47,4.12c0,.3,0,.59,0,.88h3c0-.43,0-.85,0-1.29a26.22,26.22,0,0,0-.27-3.71" transform="translate(-0.5 -0.5)"/><path class="cls-50" d="M865.55,460a20.13,20.13,0,0,0-20.13,20.13v145L1131,460Z" transform="translate(-0.5 -0.5)"/><g class="cls-51"><g class="cls-52"><path class="cls-48" d="M1264,743H851.42q11.82-9.78,22.49-20.23c163.93-160.31,137.16-438.66,105.69-600.46A8.65,8.65,0,0,1,988.1,112h394.5a8.67,8.67,0,0,1,8.59,7.51c23.22,173,52.94,530.25-112.49,616.75A161.3,161.3,0,0,1,1264,743" transform="translate(-0.5 -0.5)"/></g></g><g class="cls-53"><g class="cls-54"><path class="cls-55" d="M1105.46,271.27l-80.46-.12a3.43,3.43,0,0,0-3.38,4.07,85.64,85.64,0,0,1,1.37,15.19,3.43,3.43,0,0,0,3.42,3.46L1107,294a3.44,3.44,0,0,0,3.45-3.42,85,85,0,0,0-1.58-16.49,3.48,3.48,0,0,0-3.39-2.81" transform="translate(-0.5 -0.5)"/></g></g><g class="cls-53"><g class="cls-56"><path class="cls-55" d="M1106.21,306.52l-80.46-.12a3.43,3.43,0,0,0-3.38,4.07,85.64,85.64,0,0,1,1.37,15.19,3.43,3.43,0,0,0,3.42,3.46l80.57.12a3.44,3.44,0,0,0,3.45-3.42,85,85,0,0,0-1.58-16.49,3.48,3.48,0,0,0-3.39-2.81" transform="translate(-0.5 -0.5)"/></g></g><g class="cls-53"><g class="cls-57"><path class="cls-55" d="M1104.91,347.41,1029.8,347a5.31,5.31,0,0,0-5.35,5.31c0,8.67-.32,17.92-1,27.66s-1.78,19.19-3,27.89a5.32,5.32,0,0,0,5.26,6.11H1100a5.32,5.32,0,0,0,5.27-4.51,473.14,473.14,0,0,0,5-56.62,5.33,5.33,0,0,0-5.3-5.46" transform="translate(-0.5 -0.5)"/></g></g><g class="cls-53"><g class="cls-58"><path class="cls-55" d="M966.52,604.08a430,430,0,0,1-22,38.7,11.76,11.76,0,0,0,9.87,18.06l58.95.31a11.79,11.79,0,0,0,9.75-5.08,425.6,425.6,0,0,0,25.08-40.8,11.77,11.77,0,0,0-10.31-17.33l-60.75-.32a11.77,11.77,0,0,0-10.56,6.46" transform="translate(-0.5 -0.5)"/></g></g><g class="cls-53"><g class="cls-59"><path class="cls-60" d="M1087.43,425.42l-57.21-.3a15,15,0,0,0-14.85,12.81q-1.17,7.95-2.54,15.88a14.92,14.92,0,0,0,14.61,17.49l57.08.31a14.9,14.9,0,0,0,14.75-12.18q1.53-8.4,2.84-16.82a14.93,14.93,0,0,0-14.68-17.19" transform="translate(-0.5 -0.5)"/></g></g><g class="cls-53"><g class="cls-61"><path class="cls-60" d="M895.73,714h77a3.94,3.94,0,0,0,2.63-1,382.14,382.14,0,0,0,39.77-41.29c1.83-2.2.09-5.34-3-5.35L934.25,666a3.83,3.83,0,0,0-3,1.39,381.43,381.43,0,0,1-38.14,40.92c-2.29,2.13-.64,5.69,2.65,5.69" transform="translate(-0.5 -0.5)"/></g></g><g class="cls-53"><g class="cls-62"><path class="cls-60" d="M1061.58,536.83l-59.32-.32a13.17,13.17,0,0,0-12.49,8.82q-5.34,15.13-11.7,29.95a13.17,13.17,0,0,0,12,18.41l58.49.31a13.13,13.13,0,0,0,12-7.62q7.25-15.69,13.27-31.79a13.15,13.15,0,0,0-12.26-17.76" transform="translate(-0.5 -0.5)"/></g></g><g class="cls-53"><g class="cls-63"><path class="cls-55" d="M1085.06,477.56l-67.67-.31c-4.53,0-8.47,2.68-9.43,6.49q-4.74,18.79-11.24,37.29c-1.87,5.29,2.72,10.63,9.14,10.66l67.2.31c4.22,0,8-2.33,9.23-5.78q7.05-19.1,12.11-38.6c1.35-5.14-3.21-10-9.34-10.06" transform="translate(-0.5 -0.5)"/></g></g><path class="cls-64" d="M1103.16,714h161.51a32.65,32.65,0,0,0,21.11-7.72,209,209,0,0,0,38.3-43.46l-246.94-1.32-.4.55c-15.66,21.67-.32,52,26.42,52" transform="translate(-0.5 -0.5)"/><g class="cls-53"><g class="cls-65"><path class="cls-55" d="M1376.68,181a4.55,4.55,0,0,0,4.57-4.73v-.05a310.86,310.86,0,0,0-3.58-35.34,4.56,4.56,0,0,0-4.5-3.86H1006.41a4.55,4.55,0,0,0-4.4,5.74q1.75,6.47,3.41,13.26,2.42,9.94,4.28,19.35a4.56,4.56,0,0,0,4.44,3.67l144.28,1Z" transform="translate(-0.5 -0.5)"/></g></g><path class="cls-64" d="M1391.42,349l-223.17-1.19a751.7,751.7,0,0,1-5.85,84L1388.56,433c2.06-27.78,2.91-56,2.86-84" transform="translate(-0.5 -0.5)"/><path class="cls-64" d="M1134.91,553.08,1375,554.49c4.82-22.9,8.58-46.72,11.44-71.11L1152.13,482a664,664,0,0,1-17.22,71.08" transform="translate(-0.5 -0.5)"/><path class="cls-64" d="M1389.25,307.11c-.78-14.41-1.72-28.59-2.8-42.45a45.29,45.29,0,0,0-44.89-41.81l-132.91-.71a45.23,45.23,0,0,0-45.28,49.63q1.67,16.83,2.83,34.15Z" transform="translate(-0.5 -0.5)"/><path class="cls-64" d="M1087.14,638.5l246.94,1.32c12.62-18.84,23.08-40.11,31.69-63.17l-241-1.29a427.46,427.46,0,0,1-37.58,63.14" transform="translate(-0.5 -0.5)"/><g class="cls-53"><g class="cls-66"><path class="cls-67" d="M1091.42,226.5a31.5,31.5,0,1,1-31.5-31.5,31.5,31.5,0,0,1,31.5,31.5" transform="translate(-0.5 -0.5)"/></g></g><polygon class="cls-68" points="1491.92 726.8 1502.62 728.03 1511.42 602.96 1500.72 601.73 1491.92 726.8"/><polygon class="cls-69" points="1499.14 623.84 1510.26 625.12 1511.85 602.53 1500.73 601.25 1499.14 623.84"/><polygon class="cls-68" points="1489.91 720.49 1479.22 721.86 1469.99 604.69 1480.68 603.31 1489.91 720.49"/><polygon class="cls-69" points="1482.46 621.43 1471.34 622.87 1469.89 604.55 1481.02 603.12 1482.46 621.43"/><polygon class="cls-68" points="1497.51 714.15 1507.07 720.42 1552.02 608.75 1542.47 602.47 1497.51 714.15"/><polygon class="cls-69" points="1535.6 619.55 1545.15 625.82 1552.02 608.75 1542.47 602.47 1535.6 619.55"/><path class="cls-70" d="M1543.1,603.05l9.47,6.22,4.33-10.76c1.18-2.93.28-6.53-2-8l-1.16-.76c-2.29-1.51-5.11-.35-6.29,2.58Z" transform="translate(-0.5 -0.5)"/><polygon class="cls-68" points="1478.43 696.99 1468.88 703.27 1433.58 615.59 1443.14 609.32 1478.43 696.99"/><polygon class="cls-69" points="1448.64 622.99 1439.09 629.27 1433.58 615.59 1443.14 609.31 1448.64 622.99"/><path class="cls-70" d="M1443.62,610.16l-9.55,6.28-3-7.57c-1.36-3.37-.32-7.51,2.32-9.24s5.87-.41,7.23,3Z" transform="translate(-0.5 -0.5)"/><path class="cls-70" d="M1501,602l11.12,1.28,1.09-15.48c.28-3.92-2-7.39-5.06-7.74s-5.79,2.54-6.06,6.47Z" transform="translate(-0.5 -0.5)"/><path class="cls-70" d="M1481.65,604.32l-11.12,1.43-.88-11.22c-.31-3.92,1.93-7.42,5-7.82h0c3.07-.39,5.81,2.47,6.12,6.39Z" transform="translate(-0.5 -0.5)"/><rect class="cls-71" x="1467.46" y="595.75" width="15.34" height="140.37" transform="translate(-54.21 134.29) rotate(-5.14)"/><rect class="cls-72" x="1461.7" y="595.48" width="15.95" height="25.35" transform="translate(-49.08 133.63) rotate(-5.14)"/><rect class="cls-71" x="1440.32" y="655.7" width="131.65" height="15.34" transform="translate(694.8 2095.03) rotate(-84.25)"/><rect class="cls-72" x="1501.25" y="599.96" width="20.58" height="15.96" transform="translate(754.81 2050.51) rotate(-84.25)"/><rect class="cls-71" x="1434.48" y="591.91" width="15.34" height="140.37" transform="translate(-143.65 732.33) rotate(-27.21)"/><rect class="cls-72" x="1407.29" y="598.5" width="15.34" height="21.46" transform="translate(-122.48 714.04) rotate(-27.21)"/><path class="cls-37" d="M1416.69,596.26l-13.53,7-6.51-12.65a6,6,0,0,1,2.58-8.05l2.91-1.49a6,6,0,0,1,8,2.58Z" transform="translate(-0.5 -0.5)"/><rect class="cls-71" x="1485.24" y="648.67" width="110.21" height="15.34" transform="translate(251.72 1725.5) rotate(-62.79)"/><rect class="cls-72" x="1553.02" y="607.31" width="17.19" height="15.34" transform="translate(300.04 1721.96) rotate(-62.78)"/><path class="cls-37" d="M1558.75,604.21l13.64,7,4.36-8.47a7.67,7.67,0,0,0-13.65-7Z" transform="translate(-0.5 -0.5)"/><path class="cls-37" d="M1476.75,595.06l-15.88,1.43-1.56-17.3a8,8,0,0,1,15.89-1.43Z" transform="translate(-0.5 -0.5)"/><path class="cls-37" d="M1504.44,597.68l15.88,1.6,1.26-12.54a8,8,0,1,0-15.88-1.6Z" transform="translate(-0.5 -0.5)"/><path class="cls-73" d="M1489.56,807h0A59.53,59.53,0,0,1,1430,747.47V670h103.38v93.15A43.85,43.85,0,0,1,1489.56,807" transform="translate(-0.5 -0.5)"/><path class="cls-74" d="M1494.89,807h0a59.53,59.53,0,0,0,59.53-59.53V670H1451v93.15A43.85,43.85,0,0,0,1494.89,807" transform="translate(-0.5 -0.5)"/><path class="cls-73" d="M1508.42,810h-49a6,6,0,0,1,0-12h49a6,6,0,0,1,0,12" transform="translate(-0.5 -0.5)"/><path class="cls-74" d="M1526.42,810h-58a6,6,0,0,1,0-12h58a6,6,0,0,1,0,12" transform="translate(-0.5 -0.5)"/></g></g></svg>